<svg xmlns="http://www.w3.org/2000/svg" viewBox="0 0 129.03 168.7"><defs><style>.cls-1{fill:#121212;}.cls-2{fill:#fff;}</style></defs><title>Dezijn-letters-morse</title><g id="Layer_2" data-name="Layer 2"><g id="DEZIJN_CREATE" data-name="DEZIJN CREATE"><rect class="cls-1" width="129.03" height="168.7"/><path class="cls-2" d="M105,140.32h13.41v10.14H105Z"/><path class="cls-2" d="M23.93,126.05H10.52V115.9H23.93Z"/><path class="cls-2" d="M118.34,101.63H104.93V91.49h13.41Z"/><path class="cls-2" d="M100.11,101.63H86.7V91.49h13.41Z"/><path class="cls-2" d="M118.27,52.79h-13.4V42.65h13.4Z"/><rect class="cls-2" x="91.65" y="115.87" width="26.77" height="10.14"/><rect class="cls-2" x="60.12" y="115.87" width="26.77" height="10.14"/><rect class="cls-2" x="28.59" y="115.87" width="26.77" height="10.14"/><path class="cls-2" d="M87.08,67.14H100.3v10H87.08Z"/><path class="cls-2" d="M105.05,67.14h13.22v10H105.05Z"/><rect class="cls-2" x="55.55" y="67.03" width="26.77" height="10.14"/><rect class="cls-2" x="24.03" y="67.03" width="26.77" height="10.14"/><path class="cls-2" d="M86.7,18.23h13.41V28.38H86.7Z"/><path class="cls-2" d="M104.87,18.23h13.4V28.38h-13.4Z"/><rect class="cls-2" x="55.18" y="18.23" width="26.77" height="10.14"/><rect class="cls-2" x="73.5" y="140.32" width="26.77" height="10.14"/></g></g></svg>