<svg xmlns="http://www.w3.org/2000/svg" viewBox="0 0 617.4 193.76"><defs><style>.cls-1{fill:#fff;}</style></defs><title>Dezijn 2020 v1 white</title><g id="Layer_2" data-name="Layer 2"><g id="Layer_1-2" data-name="Layer 1"><path class="cls-1" d="M0,97.05C0,63.86,19.09,41,47.3,41c15.15,0,22.61,5.6,29.46,14.52h.62V0h39.21V150.16H79.25V135.43h-.42c-6.84,11.82-18,18.26-31.11,18.26C20.33,153.69,0,133.56,0,97.05Zm78.42-.62c0-15.15-7.88-27.18-19.5-27.18-11.41,0-19.09,11-19.09,27.18S47.3,124,58.92,124,78.42,111.78,78.42,96.43Z"/><path class="cls-1" d="M126.34,97.05c0-31.95,23-56.22,56.43-56.22,16.6,0,29.25,5.39,39,14.31C234.64,67,240.65,85.85,240.24,106.8H164.72c2.28,12.24,8.92,19.71,20.75,19.71,6.84,0,11.82-2.7,14.73-7.88h38c-2.28,9.54-9.75,18.87-20.12,25.51-9.75,6.23-20.33,8.92-33.82,8.92C149.58,153.06,126.34,129.41,126.34,97.05Zm38.38-11h36.52c-1.66-11.82-8.3-18.87-17.64-18.87C172.81,67.18,166.8,74.44,164.72,86.05Z"/><path class="cls-1" d="M246.26,121.74,283.39,84c5.19-5.19,10.38-9.75,10.38-9.75v-.17s-8.29,0-14.93,0H250V44.56h93.77v27l-35.89,35.89c-6.43,6.43-13.48,12.86-13.48,12.86v.21h52.07v29.67H246.26Z"/><path class="cls-1" d="M357.87.21h39.21V29.87H357.87Zm0,44.15h39.21v105.8H357.87Z"/><path class="cls-1" d="M393.14,191.68V164.63c12.24.21,18.05-1,18.05-13.62V44.36H450.4v108.1c0,15.77-3.74,24.27-9.13,29.88-6.43,6.64-14.94,11.42-25.94,11.42A127.34,127.34,0,0,1,393.14,191.68ZM411.19.21H450.4V29.87H411.19Z"/><path class="cls-1" d="M501.84,58.88h.63C511,47.26,521.76,41,536.49,41,561,41,573.62,57.42,573.62,81.7v68.46h-39.2V91.24c0-11-4.57-18.26-14.73-18.26-10,0-16,8.72-16,20.13v57.05H464.5V44.36h37.34Z"/><rect class="cls-1" x="130.7" width="213.06" height="30.08"/><rect class="cls-1" x="587.74" y="120.49" width="29.67" height="29.67"/></g></g></svg>