<?xml version="1.0" encoding="utf-8"?>
<!-- Generator: Adobe Illustrator 24.0.0, SVG Export Plug-In . SVG Version: 6.00 Build 0)  -->
<svg version="1.1" id="Layer_1" xmlns="http://www.w3.org/2000/svg" xmlns:xlink="http://www.w3.org/1999/xlink" x="0px" y="0px"
	 viewBox="0 0 150 47.1" style="enable-background:new 0 0 150 47.1;" xml:space="preserve">
<style type="text/css">
	.st0{fill:#FFFFFF;}
</style>
<title>Dezijn 2020 v1 white</title>
<g id="Layer_2_1_">
	<g id="Layer_1-2">
		<path class="st0" d="M0,23.6C0,15.5,4.6,10,11.5,10c3.7,0,5.5,1.4,7.2,3.5h0.2V0h9.5v36.5h-9.1v-3.6h-0.1
			c-1.7,2.9-4.4,4.4-7.6,4.4C4.9,37.3,0,32.4,0,23.6z M19.1,23.4c0-3.7-1.9-6.6-4.7-6.6c-2.8,0-4.6,2.7-4.6,6.6s1.8,6.7,4.6,6.7
			S19.1,27.1,19.1,23.4z"/>
		<path class="st0" d="M30.7,23.6c0-7.8,5.6-13.7,13.7-13.7c4,0,7.1,1.3,9.5,3.5c3.1,2.9,4.6,7.5,4.5,12.5H40c0.6,3,2.2,4.8,5,4.8
			c1.7,0,2.9-0.7,3.6-1.9h9.2c-0.6,2.3-2.4,4.6-4.9,6.2c-2.4,1.5-4.9,2.2-8.2,2.2C36.3,37.2,30.7,31.4,30.7,23.6z M40,20.9h8.9
			c-0.4-2.9-2-4.6-4.3-4.6C42,16.3,40.5,18.1,40,20.9z"/>
		<path class="st0" d="M59.8,29.6l9-9.2c1.3-1.3,2.5-2.4,2.5-2.4v0c0,0-2,0-3.6,0h-7v-7.2h22.8v6.6l-8.7,8.7
			c-1.6,1.6-3.3,3.1-3.3,3.1v0.1h12.7v7.2H59.8V29.6z"/>
		<path class="st0" d="M86.9,0.1h9.5v7.2h-9.5V0.1z M86.9,10.8h9.5v25.7h-9.5V10.8z"/>
		<path class="st0" d="M95.5,46.6V40c3,0.1,4.4-0.2,4.4-3.3V10.8h9.5V37c0,3.8-0.9,5.9-2.2,7.3c-1.6,1.6-3.6,2.8-6.3,2.8
			C99.1,47,97.3,46.9,95.5,46.6z M99.9,0.1h9.5v7.2h-9.5V0.1z"/>
		<path class="st0" d="M121.9,14.3h0.2c2.1-2.8,4.7-4.3,8.3-4.3c6,0,9,4,9,9.9v16.6h-9.5V22.2c0-2.7-1.1-4.4-3.6-4.4
			c-2.4,0-3.9,2.1-3.9,4.9v13.9h-9.5V10.8h9.1V14.3z"/>
		<rect x="31.8" class="st0" width="51.8" height="7.3"/>
		<rect x="142.8" y="29.3" class="st0" width="7.2" height="7.2"/>
	</g>
</g>
</svg>
