<?xml version="1.0" encoding="utf-8"?>
<!-- Generator: Adobe Illustrator 24.0.0, SVG Export Plug-In . SVG Version: 6.00 Build 0)  -->
<svg version="1.1" id="Layer_1" xmlns="http://www.w3.org/2000/svg" xmlns:xlink="http://www.w3.org/1999/xlink" x="0px" y="0px"
	 viewBox="0 0 230 300.7" style="enable-background:new 0 0 230 300.7;" xml:space="preserve">
<style type="text/css">
	.st0{fill:#121212;}
	.st1{fill:#FFFFFF;}
</style>
<title>Dezijn-letters-morse</title>
<g id="Layer_2_1_">
	<g id="DEZIJN_CREATE">
		<rect class="st0" width="230" height="300.7"/>
		<path class="st1" d="M187.2,250.1h23.9v18.1h-23.9V250.1z"/>
		<path class="st1" d="M42.7,224.7H18.8v-18.1h23.9V224.7z"/>
		<path class="st1" d="M210.9,181.2H187v-18.1h23.9V181.2z"/>
		<path class="st1" d="M178.4,181.2h-23.9v-18.1h23.9V181.2z"/>
		<path class="st1" d="M210.8,94.1h-23.9V76h23.9V94.1z"/>
		<rect x="163.4" y="206.5" class="st1" width="47.7" height="18.1"/>
		<rect x="107.2" y="206.5" class="st1" width="47.7" height="18.1"/>
		<rect x="51" y="206.5" class="st1" width="47.7" height="18.1"/>
		<path class="st1" d="M155.2,119.7h23.6v17.8h-23.6V119.7z"/>
		<path class="st1" d="M187.3,119.7h23.6v17.8h-23.6V119.7z"/>
		<rect x="99" y="119.5" class="st1" width="47.7" height="18.1"/>
		<rect x="42.8" y="119.5" class="st1" width="47.7" height="18.1"/>
		<path class="st1" d="M154.5,32.5h23.9v18.1h-23.9V32.5z"/>
		<path class="st1" d="M186.9,32.5h23.9v18.1h-23.9V32.5z"/>
		<rect x="98.4" y="32.5" class="st1" width="47.7" height="18.1"/>
		<rect x="131" y="250.1" class="st1" width="47.7" height="18.1"/>
	</g>
</g>
</svg>
