<?xml version="1.0" encoding="utf-8"?>
<!-- Generator: Adobe Illustrator 24.0.0, SVG Export Plug-In . SVG Version: 6.00 Build 0)  -->
<svg version="1.1" id="Layer_1" focusable="false" xmlns="http://www.w3.org/2000/svg" xmlns:xlink="http://www.w3.org/1999/xlink"
	 x="0px" y="0px" viewBox="0 0 20 20" style="enable-background:new 0 0 20 20;" xml:space="preserve">
<style type="text/css">
	.st0{fill:#FFFFFF;}
</style>
<path class="st0" d="M18.1,2.5H1.9C0.8,2.5,0,3.3,0,4.4v11.3c0,1,0.8,1.9,1.9,1.9h16.3c1,0,1.9-0.8,1.9-1.9V4.4
	C20,3.3,19.2,2.5,18.1,2.5z M18.1,4.4V6c-0.9,0.7-2.3,1.8-5.3,4.2c-0.7,0.5-2,1.8-2.9,1.7c-0.9,0-2.2-1.2-2.9-1.7
	C4.1,7.8,2.8,6.7,1.9,6V4.4H18.1z M1.9,15.6V8.4C2.8,9.1,4,10.1,6,11.6c0.9,0.7,2.3,2.2,4,2.1c1.7,0,3.1-1.5,4-2.1
	c1.9-1.5,3.2-2.5,4.1-3.2v7.3H1.9z"/>
</svg>
