<?xml version="1.0" encoding="utf-8"?>
<!-- Generator: Adobe Illustrator 24.0.0, SVG Export Plug-In . SVG Version: 6.00 Build 0)  -->
<svg version="1.1" id="Layer_1" focusable="false" xmlns="http://www.w3.org/2000/svg" xmlns:xlink="http://www.w3.org/1999/xlink"
	 x="0px" y="0px" viewBox="0 0 30 34.3" style="enable-background:new 0 0 30 34.3;" xml:space="preserve">
<style type="text/css">
	.st0{fill:#FFFFFF;}
</style>
<path class="st0" d="M26.8,2.1H3.2C1.4,2.1,0,3.6,0,5.4v23.6c0,1.8,1.4,3.2,3.2,3.2h9.2V21.9H8.2v-4.8h4.2v-3.7
	c0-4.2,2.5-6.5,6.3-6.5c1.8,0,3.7,0.3,3.7,0.3v4.1h-2.1c-2.1,0-2.7,1.3-2.7,2.6v3.1h4.6l-0.7,4.8h-3.9v10.2h9.2
	c1.8,0,3.2-1.4,3.2-3.2V5.4C30,3.6,28.6,2.1,26.8,2.1z"/>
</svg>
