<?xml version="1.0" encoding="utf-8"?>
<!-- Generator: Adobe Illustrator 24.0.0, SVG Export Plug-In . SVG Version: 6.00 Build 0)  -->
<svg version="1.1" id="Layer_1" focusable="false" xmlns="http://www.w3.org/2000/svg" xmlns:xlink="http://www.w3.org/1999/xlink"
	 x="0px" y="0px" viewBox="0 0 30 31" style="enable-background:new 0 0 30 31;" xml:space="preserve">
<style type="text/css">
	.st0{fill:#FFFFFF;}
</style>
<path class="st0" d="M15,0.5c-8.3,0-15,6.7-15,15s6.7,15,15,15s15-6.7,15-15S23.3,0.5,15,0.5z M27.1,15.5c0,1.4-0.2,2.7-0.7,3.9
	h-1.2c-0.3,0-0.5-0.1-0.7-0.3l-1.9-2c-0.3-0.3-0.3-0.7,0-1l0.8-0.8v-0.5c0-0.2-0.1-0.4-0.2-0.5l-0.6-0.6c-0.1-0.1-0.3-0.2-0.5-0.2
	h-1c-0.4,0-0.7-0.3-0.7-0.7c0-0.2,0.1-0.4,0.2-0.5l0.6-0.6c0.1-0.1,0.3-0.2,0.5-0.2h1.9c0.4,0,0.7-0.3,0.7-0.7v-0.6
	c0-0.4-0.3-0.7-0.7-0.7h-2.2c-0.5,0-1,0.4-1,1v0.3c0,0.4-0.3,0.8-0.7,0.9l-1.9,0.6c-0.2,0.1-0.3,0.2-0.3,0.5v0.1
	c0,0.3-0.2,0.5-0.5,0.5h-1c-0.3,0-0.5-0.2-0.5-0.5c0-0.3-0.2-0.5-0.5-0.5h-0.2c-0.2,0-0.4,0.1-0.4,0.3L13.9,14
	c-0.2,0.3-0.5,0.5-0.9,0.5h-1.3c-0.5,0-1-0.4-1-1V12c0-0.3,0.1-0.5,0.3-0.7l1.2-1.2c0.3-0.3,0.4-0.7,0.4-1.1c0-0.2,0.1-0.4,0.3-0.5
	l2.4-0.8c0.1,0,0.2-0.1,0.3-0.2L17.3,6c0.1-0.1,0.2-0.3,0.2-0.5c0-0.4-0.3-0.7-0.7-0.7h-1.3l-1,1v0.5c0,0.3-0.2,0.5-0.5,0.5h-1
	c-0.3,0-0.5-0.2-0.5-0.5V5.1c0-0.2,0.1-0.3,0.2-0.4l1.7-1.3c0.1,0,0.2,0,0.3,0C21.7,3.4,27.1,8.8,27.1,15.5z M7.9,9
	c0-0.2,0.1-0.4,0.2-0.5L9.6,7c0.1-0.1,0.3-0.2,0.5-0.2c0.4,0,0.7,0.3,0.7,0.7v1c0,0.2-0.1,0.4-0.2,0.5L10,9.5
	C9.9,9.6,9.7,9.7,9.5,9.7h-1C8.2,9.7,7.9,9.4,7.9,9z M15.6,27.5v-0.4c0-0.5-0.4-1-1-1h-1.2c-0.7,0-1.6-0.3-2.1-0.7l-1.3-1
	c-0.7-0.5-1.1-1.3-1.1-2.2v-1.4c0-1,0.5-1.9,1.3-2.4l2.6-1.6c0.4-0.3,0.9-0.4,1.4-0.4h1.9c0.7,0,1.3,0.2,1.8,0.7l2.6,2.2h1.1
	c0.5,0,1,0.2,1.4,0.6l1,1c0.2,0.2,0.5,0.3,0.8,0.3h0.8C23.6,24.9,19.9,27.3,15.6,27.5L15.6,27.5z"/>
</svg>
