<?xml version="1.0" encoding="utf-8"?>
<!-- Generator: Adobe Illustrator 24.0.0, SVG Export Plug-In . SVG Version: 6.00 Build 0)  -->
<svg version="1.1" id="Layer_1" focusable="false" xmlns="http://www.w3.org/2000/svg" xmlns:xlink="http://www.w3.org/1999/xlink"
	 x="0px" y="0px" viewBox="0 0 30 34.3" style="enable-background:new 0 0 30 34.3;" xml:space="preserve">
<style type="text/css">
	.st0{fill:#FFFFFF;}
</style>
<path class="st0" d="M15,9.5c-4.3,0-7.7,3.4-7.7,7.7s3.4,7.7,7.7,7.7s7.7-3.4,7.7-7.7S19.3,9.5,15,9.5z M15,22.1c-2.8,0-5-2.2-5-5
	s2.2-5,5-5s5,2.2,5,5S17.8,22.1,15,22.1L15,22.1z M24.8,9.1c0,1-0.8,1.8-1.8,1.8c-1,0-1.8-0.8-1.8-1.8S22,7.3,23,7.3
	C24,7.3,24.8,8.1,24.8,9.1z M29.9,11c-0.1-2.4-0.7-4.5-2.4-6.3c-1.8-1.8-3.9-2.3-6.3-2.4c-2.5-0.1-9.9-0.1-12.4,0
	C6.4,2.4,4.3,2.9,2.5,4.7s-2.3,3.9-2.4,6.3C0,13.4,0,20.8,0.1,23.3c0.1,2.4,0.7,4.5,2.4,6.3c1.8,1.8,3.9,2.3,6.3,2.4
	c2.5,0.1,9.9,0.1,12.4,0c2.4-0.1,4.5-0.7,6.3-2.4c1.8-1.8,2.3-3.9,2.4-6.3C30,20.8,30,13.4,29.9,11L29.9,11z M26.7,26
	c-0.5,1.3-1.5,2.3-2.9,2.9c-2,0.8-6.7,0.6-8.8,0.6s-6.9,0.2-8.8-0.6c-1.3-0.5-2.3-1.5-2.9-2.9c-0.8-2-0.6-6.7-0.6-8.8
	s-0.2-6.9,0.6-8.8C3.8,7,4.8,6,6.2,5.4c2-0.8,6.7-0.6,8.8-0.6s6.9-0.2,8.8,0.6C25.2,6,26.2,7,26.7,8.3c0.8,2,0.6,6.7,0.6,8.8
	S27.5,24,26.7,26z"/>
</svg>
