<?xml version="1.0" encoding="utf-8"?>
<!-- Generator: Adobe Illustrator 24.0.0, SVG Export Plug-In . SVG Version: 6.00 Build 0)  -->
<svg version="1.1" id="Layer_1" focusable="false" xmlns="http://www.w3.org/2000/svg" xmlns:xlink="http://www.w3.org/1999/xlink"
	 x="0px" y="0px" viewBox="0 0 30 34.3" style="enable-background:new 0 0 30 34.3;" xml:space="preserve">
<style type="text/css">
	.st0{fill:#FFFFFF;}
</style>
<path class="st0" d="M27.9,2.1H2.1C1,2.1,0,3.1,0,4.3V30c0,1.2,1,2.2,2.1,2.2h25.7c1.2,0,2.1-1,2.1-2.2V4.3C30,3.1,29,2.1,27.9,2.1z
	 M9.1,27.9H4.6V13.5h4.5L9.1,27.9L9.1,27.9z M6.8,11.6c-1.4,0-2.6-1.2-2.6-2.6s1.2-2.6,2.6-2.6c1.4,0,2.6,1.2,2.6,2.6
	C9.4,10.4,8.3,11.6,6.8,11.6z M25.7,27.9h-4.4v-7c0-1.7,0-3.8-2.3-3.8c-2.3,0-2.7,1.8-2.7,3.7v7.1h-4.4V13.5h4.3v2h0.1
	c0.6-1.1,2-2.3,4.2-2.3c4.5,0,5.3,3,5.3,6.8V27.9z"/>
</svg>
