<?xml version="1.0" encoding="utf-8"?>
<!-- Generator: Adobe Illustrator 24.0.0, SVG Export Plug-In . SVG Version: 6.00 Build 0)  -->
<svg version="1.1" id="Layer_1" focusable="false" xmlns="http://www.w3.org/2000/svg" xmlns:xlink="http://www.w3.org/1999/xlink"
	 x="0px" y="0px" viewBox="0 0 20 20" style="enable-background:new 0 0 20 20;" xml:space="preserve">
<path d="M19.4,14.1l-4.4-1.9c-0.4-0.2-0.8-0.1-1.1,0.3L12,14.9C9,13.5,6.5,11,5.1,8L7.5,6c0.3-0.3,0.4-0.7,0.3-1.1L5.9,0.6
	C5.7,0.2,5.2-0.1,4.8,0L0.7,1C0.3,1.1,0,1.4,0,1.9C0,11.9,8.1,20,18.1,20c0.4,0,0.8-0.3,0.9-0.7l0.9-4.1
	C20.1,14.8,19.8,14.3,19.4,14.1L19.4,14.1z"/>
</svg>
