<?xml version="1.0" encoding="utf-8"?>
<!-- Generator: Adobe Illustrator 24.0.0, SVG Export Plug-In . SVG Version: 6.00 Build 0)  -->
<svg version="1.1" id="Layer_1" focusable="false" xmlns="http://www.w3.org/2000/svg" xmlns:xlink="http://www.w3.org/1999/xlink"
	 x="0px" y="0px" viewBox="0 0 20 20" style="enable-background:new 0 0 20 20;" xml:space="preserve">
<path d="M7.2,10.2c0.1,0.5-0.5,1-0.9,0.7l-1.6-1l-2,3.2C2.2,13.9,2.8,15,3.8,15h2c0.3,0,0.5,0.2,0.5,0.5V17c0,0.3-0.2,0.5-0.5,0.5
	h-2c-2.9,0-4.7-3.2-3.2-5.7l2-3.2L1,7.6c-0.5-0.3-0.4-1,0.2-1.1l4.3-1c0.3-0.1,0.7,0.1,0.7,0.5L7.2,10.2L7.2,10.2z M11.1,3.1
	l1.6,2.6l-1.6,1c-0.5,0.3-0.4,1,0.2,1.1l4.3,1c0.3,0.1,0.7-0.1,0.7-0.5l1-4.3c0.1-0.5-0.5-1-0.9-0.7l-1.6,1l-1.6-2.6
	c-1.5-2.3-4.9-2.4-6.4,0L6.1,2.9C6,3.1,6,3.4,6.3,3.5l1.3,0.8c0.2,0.1,0.5,0.1,0.6-0.1l0.7-1.1C9.4,2.3,10.6,2.3,11.1,3.1L11.1,3.1z
	 M19.4,11.8L18.4,10c-0.1-0.2-0.4-0.3-0.6-0.1l-1.3,0.8c-0.2,0.1-0.3,0.4-0.1,0.6l1.1,1.7c0.5,0.8-0.1,1.9-1.1,1.9h-3.7v-1.9
	c0-0.6-0.7-0.8-1.1-0.4l-3.1,3.1c-0.2,0.2-0.2,0.6,0,0.9l3.1,3.1c0.4,0.4,1.1,0.1,1.1-0.4v-1.9h3.7C19.2,17.5,21,14.3,19.4,11.8z"/>
</svg>
